<svg id="sports_bar_black_24dp" xmlns="http://www.w3.org/2000/svg" width="36" height="36" viewBox="0 0 36 36">
  <rect id="Retângulo_4" data-name="Retângulo 4" width="36" height="36" fill="none"/>
  <path id="Caminho_14" data-name="Caminho 14" d="M23.841,31.5H11.684V19.992a10.405,10.405,0,0,0,4.811-3.455c1.441-1.58,2.275-2.4,3.873-2.4h3.473ZM15.157,2.02A8.2,8.2,0,0,0,7.741,6.726,6.9,6.9,0,0,0,8.21,19.975v15h19.1V31.5h3.473a3.483,3.483,0,0,0,3.473-3.473V17.613a3.483,3.483,0,0,0-3.473-3.473H28.078a6.782,6.782,0,0,0,.973-3.473A6.9,6.9,0,0,0,20.4,3.947,8.176,8.176,0,0,0,15.157,2.02ZM9.947,16.745a3.454,3.454,0,0,1-1.094-6.737l1.389-.469.625-1.32a4.738,4.738,0,0,1,4.29-2.726,4.667,4.667,0,0,1,3.022,1.129L19.534,7.75a6.289,6.289,0,0,1,2.553-.556,3.483,3.483,0,0,1,3.473,3.473H20.35c-5.766,0-6.669,6.078-10.4,6.078ZM27.314,28.032V17.613h3.473V28.032Z" transform="translate(-1.549 -1.532)" fill="#fff"/>
</svg>
