<svg id="lunch_dining_black_24dp" xmlns="http://www.w3.org/2000/svg" width="36" height="36" viewBox="0 0 36 36">
  <g id="Grupo_3" data-name="Grupo 3" transform="translate(0 0)">
    <rect id="Retângulo_1" data-name="Retângulo 1" width="36" height="36" fill="none"/>
  </g>
  <g id="Grupo_5" data-name="Grupo 5" transform="translate(2.383 5.381)">
    <g id="Grupo_4" data-name="Grupo 4">
      <path id="Caminho_4" data-name="Caminho 4" d="M2,20.465a3.045,3.045,0,0,0,3.092,2.977H29.824a3.045,3.045,0,0,0,3.092-2.977V16H2Zm3.092-1.488H29.824v1.488H5.092Z" transform="translate(-2 3.676)" fill="#fff"/>
      <path id="Caminho_5" data-name="Caminho 5" d="M27.748,11.5c-3.014,0-3.231,1.489-5.148,1.489-1.84,0-2.2-1.489-5.148-1.489-3.014,0-3.231,1.489-5.148,1.489-1.84,0-2.2-1.489-5.148-1.489-3.014,0-3.231,1.489-5.148,1.489v2.977c2.937,0,3.354-1.488,5.178-1.488,1.84,0,2.2,1.488,5.148,1.488,3.014,0,3.231-1.488,5.148-1.488,1.84,0,2.2,1.488,5.148,1.488,3.014,0,3.231-1.488,5.148-1.488,1.84,0,2.164,1.459,5.132,1.488L32.9,13.018C30.407,12.527,30.391,11.5,27.748,11.5Z" transform="translate(-1.995 0.315)" fill="#fff"/>
      <path id="Caminho_6" data-name="Caminho 6" d="M32.916,11.931C32.947,5.977,26.3,3,17.458,3,8.631,3,2,5.977,2,11.931v1.488H32.916V11.931ZM5.37,10.442c1.283-3.26,6.848-4.465,12.088-4.465,5.117,0,9.167,1.087,11.114,2.962a4.112,4.112,0,0,1,1,1.5Z" transform="translate(-2 -5)" fill="#fff"/>
    </g>
  </g>
</svg>
