<svg id="shopping_cart_black_24dp_2_" data-name="shopping_cart_black_24dp (2)" xmlns="http://www.w3.org/2000/svg" width="36" height="36" viewBox="0 0 36 36">
  <path id="Caminho_12" data-name="Caminho 12" d="M0,0H36V36H0Z" fill="none"/>
  <path id="Caminho_13" data-name="Caminho 13" d="M25.117,20.237a3.3,3.3,0,0,0,2.9-1.708L33.952,7.77A1.651,1.651,0,0,0,32.51,5.316H7.978L6.42,2H1V5.316H4.315L10.282,17.9,8.045,21.945a3.322,3.322,0,0,0,2.9,4.924H30.836V23.553H10.945l1.823-3.316ZM9.553,8.632H29.692l-4.575,8.29H13.481Zm1.392,19.895a3.316,3.316,0,1,0,3.315,3.316A3.311,3.311,0,0,0,10.945,28.526Zm16.576,0a3.316,3.316,0,1,0,3.315,3.316A3.311,3.311,0,0,0,27.521,28.526Z" transform="translate(-0.29 -0.579)" fill="#fff"/>
</svg>
